<?xml version="1.0" encoding="UTF-8" standalone="no" ?>
<!DOCTYPE svg PUBLIC "-//W3C//DTD SVG 1.1//EN" "http://www.w3.org/Graphics/SVG/1.1/DTD/svg11.dtd">
<svg xmlns="http://www.w3.org/2000/svg" xmlns:xlink="http://www.w3.org/1999/xlink" version="1.1" width="1280" height="1024" viewBox="0 0 1280 1024" xml:space="preserve">
<desc>Created with Fabric.js 5.3.0</desc>
<defs>
</defs>
<g transform="matrix(1 0 0 1 640 512)" id="background-logo"  >
<rect style="stroke: none; stroke-width: 0; stroke-dasharray: none; stroke-linecap: butt; stroke-dashoffset: 0; stroke-linejoin: miter; stroke-miterlimit: 4; fill: rgb(255,255,255); fill-opacity: 0; fill-rule: nonzero; opacity: 1;"  paint-order="stroke"  x="-640" y="-512" rx="0" ry="0" width="1280" height="1024" />
</g>
<g transform="matrix(1.9211538461538462 0 0 1.9211538461538462 637.7436048076923 506.340626576923)" id="text-logo"  >
<g style=""  paint-order="stroke"   >
		<g transform="matrix(1 0 0 1 0 0)" id="text-logo-path-0"  >
<filter id="SVGID_240463" y="-22.97168699596602%" height="145.94337399193205%" x="-22.48706973872189%" width="144.97413947744377%" >
	<feGaussianBlur in="SourceAlpha" stdDeviation="0"></feGaussianBlur>
	<feOffset dx="7.404255319148937" dy="1.8510638297872342" result="oBlur" ></feOffset>
	<feFlood flood-color="rgb(255,70,163)" flood-opacity="1"/>
	<feComposite in2="oBlur" operator="in" />
	<feMerge>
		<feMergeNode></feMergeNode>
		<feMergeNode in="SourceGraphic"></feMergeNode>
	</feMerge>
</filter>
<path style="stroke: rgb(0,0,0); stroke-width: 7.404255319148935; stroke-dasharray: none; stroke-linecap: butt; stroke-dashoffset: 0; stroke-linejoin: miter; stroke-miterlimit: 4; fill: rgb(0,0,0); fill-rule: nonzero; opacity: 1;filter: url(#SVGID_240463);"  paint-order="stroke"  transform=" translate(-150.075, 30.275000000000006)" d="M 18.27 0.87 L 18.27 0.87 Q 13.57 0.87 9.7 -1.52 Q 5.83 -3.92 3.52 -7.87 Q 1.22 -11.83 1.22 -16.62 L 1.22 -16.62 L 1.22 -20.62 Q 1.22 -21.05 1.65 -21.05 L 1.65 -21.05 L 11.4 -21.05 Q 11.75 -21.05 11.75 -20.62 L 11.75 -20.62 L 11.75 -16.62 Q 11.75 -13.75 13.66 -11.7 Q 15.57 -9.66 18.27 -9.66 L 18.27 -9.66 Q 20.97 -9.66 22.88 -11.75 Q 24.8 -13.83 24.8 -16.62 L 24.8 -16.62 Q 24.8 -19.84 20.62 -22.19 L 20.62 -22.19 Q 19.23 -22.97 16.27 -24.62 Q 13.31 -26.27 10.7 -27.75 L 10.7 -27.75 Q 5.92 -30.54 3.61 -34.76 Q 1.31 -38.98 1.31 -44.28 L 1.31 -44.28 Q 1.31 -49.16 3.65 -53.03 Q 6 -56.9 9.87 -59.16 Q 13.75 -61.42 18.27 -61.42 L 18.27 -61.42 Q 22.88 -61.42 26.75 -59.12 Q 30.62 -56.81 32.93 -52.94 Q 35.24 -49.07 35.24 -44.28 L 35.24 -44.28 L 35.24 -37.15 Q 35.24 -36.8 34.89 -36.8 L 34.89 -36.8 L 25.14 -36.8 Q 24.8 -36.8 24.8 -37.15 L 24.8 -37.15 L 24.71 -44.28 Q 24.71 -47.33 22.79 -49.24 Q 20.88 -51.16 18.27 -51.16 L 18.27 -51.16 Q 15.57 -51.16 13.66 -49.11 Q 11.75 -47.07 11.75 -44.28 L 11.75 -44.28 Q 11.75 -41.41 12.96 -39.5 Q 14.18 -37.58 17.4 -35.84 L 17.4 -35.84 Q 17.84 -35.58 19.1 -34.93 Q 20.36 -34.28 21.84 -33.45 Q 23.32 -32.63 24.49 -32.02 Q 25.67 -31.41 25.93 -31.23 L 25.93 -31.23 Q 30.28 -28.8 32.8 -25.27 Q 35.32 -21.75 35.32 -16.62 L 35.32 -16.62 Q 35.32 -11.66 33.02 -7.7 Q 30.71 -3.74 26.84 -1.44 Q 22.97 0.87 18.27 0.87 Z M 75.69 0 L 47.59 0 Q 47.24 0 47.24 -0.44 L 47.24 -0.44 L 47.33 -60.2 Q 47.33 -60.55 47.68 -60.55 L 47.68 -60.55 L 75.6 -60.55 Q 75.95 -60.55 75.95 -60.12 L 75.95 -60.12 L 75.95 -50.37 Q 75.95 -50.03 75.6 -50.03 L 75.6 -50.03 L 57.77 -50.03 L 57.77 -36.45 L 75.6 -36.45 Q 75.95 -36.45 75.95 -36.11 L 75.95 -36.11 L 76.04 -26.27 Q 76.04 -25.93 75.69 -25.93 L 75.69 -25.93 L 57.77 -25.93 L 57.77 -10.7 L 75.69 -10.7 Q 76.04 -10.7 76.04 -10.27 L 76.04 -10.27 L 76.04 -0.35 Q 76.04 0 75.69 0 L 75.69 0 Z M 99.79 0 L 89.96 0 Q 89.61 0 89.61 -0.44 L 89.61 -0.44 L 89.78 -60.2 Q 89.78 -60.55 90.13 -60.55 L 90.13 -60.55 L 107.71 -60.55 Q 112.4 -60.55 116.36 -58.25 Q 120.32 -55.94 122.67 -52.07 Q 125.02 -48.2 125.02 -43.33 L 125.02 -43.33 Q 125.02 -40.11 124.06 -37.54 Q 123.11 -34.97 121.8 -33.19 Q 120.5 -31.41 119.45 -30.54 L 119.45 -30.54 Q 124.15 -25.32 124.15 -18.27 L 124.15 -18.27 L 124.24 -0.44 Q 124.24 0 123.8 0 L 123.8 0 L 113.97 0 Q 113.62 0 113.62 -0.26 L 113.62 -0.26 L 113.62 -18.27 Q 113.62 -21.4 111.4 -23.71 Q 109.19 -26.01 105.97 -26.01 L 105.97 -26.01 L 100.22 -26.01 L 100.14 -0.44 Q 100.14 0 99.79 0 L 99.79 0 Z M 100.22 -50.11 L 100.22 -36.45 L 107.71 -36.45 Q 110.4 -36.45 112.49 -38.45 Q 114.58 -40.46 114.58 -43.33 L 114.58 -43.33 Q 114.58 -46.11 112.53 -48.11 Q 110.49 -50.11 107.71 -50.11 L 107.71 -50.11 L 100.22 -50.11 Z M 155.9 0 L 145.38 0 Q 145.03 0 144.94 -0.44 L 144.94 -0.44 L 132.94 -60.2 Q 132.85 -60.55 133.28 -60.55 L 133.28 -60.55 L 143.12 -60.55 Q 143.46 -60.55 143.55 -60.2 L 143.55 -60.2 L 150.68 -20.36 L 157.64 -60.2 Q 157.73 -60.55 158.08 -60.55 L 158.08 -60.55 L 167.82 -60.55 Q 168.26 -60.55 168.17 -60.2 L 168.17 -60.2 L 156.34 -0.44 Q 156.25 0 155.9 0 L 155.9 0 Z M 207.58 0 L 179.48 0 Q 179.13 0 179.13 -0.44 L 179.13 -0.44 L 179.22 -60.2 Q 179.22 -60.55 179.57 -60.55 L 179.57 -60.55 L 207.5 -60.55 Q 207.84 -60.55 207.84 -60.12 L 207.84 -60.12 L 207.84 -50.37 Q 207.84 -50.03 207.5 -50.03 L 207.5 -50.03 L 189.66 -50.03 L 189.66 -36.45 L 207.5 -36.45 Q 207.84 -36.45 207.84 -36.11 L 207.84 -36.11 L 207.93 -26.27 Q 207.93 -25.93 207.58 -25.93 L 207.58 -25.93 L 189.66 -25.93 L 189.66 -10.7 L 207.58 -10.7 Q 207.93 -10.7 207.93 -10.27 L 207.93 -10.27 L 207.93 -0.35 Q 207.93 0 207.58 0 L 207.58 0 Z M 235.77 0.87 L 235.77 0.87 Q 231.07 0.87 227.2 -1.52 Q 223.33 -3.92 221.02 -7.87 Q 218.72 -11.83 218.72 -16.62 L 218.72 -16.62 L 218.72 -20.62 Q 218.72 -21.05 219.15 -21.05 L 219.15 -21.05 L 228.9 -21.05 Q 229.25 -21.05 229.25 -20.62 L 229.25 -20.62 L 229.25 -16.62 Q 229.25 -13.75 231.16 -11.7 Q 233.07 -9.66 235.77 -9.66 L 235.77 -9.66 Q 238.47 -9.66 240.38 -11.75 Q 242.3 -13.83 242.3 -16.62 L 242.3 -16.62 Q 242.3 -19.84 238.12 -22.19 L 238.12 -22.19 Q 236.73 -22.97 233.77 -24.62 Q 230.81 -26.27 228.2 -27.75 L 228.2 -27.75 Q 223.42 -30.54 221.11 -34.76 Q 218.81 -38.98 218.81 -44.28 L 218.81 -44.28 Q 218.81 -49.16 221.15 -53.03 Q 223.5 -56.9 227.37 -59.16 Q 231.25 -61.42 235.77 -61.42 L 235.77 -61.42 Q 240.38 -61.42 244.25 -59.12 Q 248.12 -56.81 250.43 -52.94 Q 252.74 -49.07 252.74 -44.28 L 252.74 -44.28 L 252.74 -37.15 Q 252.74 -36.8 252.39 -36.8 L 252.39 -36.8 L 242.64 -36.8 Q 242.3 -36.8 242.3 -37.15 L 242.3 -37.15 L 242.21 -44.28 Q 242.21 -47.33 240.29 -49.24 Q 238.38 -51.16 235.77 -51.16 L 235.77 -51.16 Q 233.07 -51.16 231.16 -49.11 Q 229.25 -47.07 229.25 -44.28 L 229.25 -44.28 Q 229.25 -41.41 230.46 -39.5 Q 231.68 -37.58 234.9 -35.84 L 234.9 -35.84 Q 235.34 -35.58 236.6 -34.93 Q 237.86 -34.28 239.34 -33.45 Q 240.82 -32.63 241.99 -32.02 Q 243.17 -31.41 243.43 -31.23 L 243.43 -31.23 Q 247.78 -28.8 250.3 -25.27 Q 252.82 -21.75 252.82 -16.62 L 252.82 -16.62 Q 252.82 -11.66 250.52 -7.7 Q 248.21 -3.74 244.34 -1.44 Q 240.47 0.87 235.77 0.87 Z M 274.92 0 L 265.09 0 Q 264.74 0 264.74 -0.44 L 264.74 -0.44 L 264.83 -60.2 Q 264.83 -60.55 265.26 -60.55 L 265.26 -60.55 L 274.92 -60.55 Q 275.36 -60.55 275.36 -60.2 L 275.36 -60.2 L 275.27 -36.54 L 288.32 -36.54 L 288.32 -60.2 Q 288.32 -60.55 288.67 -60.55 L 288.67 -60.55 L 298.32 -60.55 Q 298.76 -60.55 298.76 -60.2 L 298.76 -60.2 L 298.93 -0.44 Q 298.93 0 298.5 0 L 298.5 0 L 288.75 0 Q 288.32 0 288.32 -0.44 L 288.32 -0.44 L 288.32 -26.01 L 275.27 -26.01 L 275.27 -0.44 Q 275.27 0 274.92 0 L 274.92 0 Z" stroke-linecap="round" />
</g>
</g>
</g>
</svg>